<svg xmlns="http://www.w3.org/2000/svg" viewBox="0 0 512 512">
  <style>
    path {
      fill: black;
      stroke: black;
    }
    @media (prefers-color-scheme: dark) {
      path {
        fill: white;
        stroke: white;
      }
    }
  </style>
  <path d="M490 183c-5-13-14-23-26-28a46 46 0 0 0-17-3h-1c-27 0-55 24-69 58a96 96 0 0 0-3 71c5 13 14 23 26 28a47 47 0 0 0 17 3c28 0 56-23 70-58 11-25 12-51 3-71zM382 330c-16-10-31-19-41-35-26-44-43-71-85-71s-59 27-85 71c-10 16-25 25-41 35-18 11-36 22-45 44a67 67 0 0 0-4 25c0 36 28 65 62 65 18 0 37-6 57-13 19-6 39-12 56-12s37 6 56 12c20 7 39 13 57 13 34 0 62-29 62-65a67 67 0 0 0-5-25c-8-22-26-34-44-44zM150 189c12 15 27 23 43 23a43 43 0 0 0 6 0c32-5 52-45 46-90-3-20-10-38-21-51a55 55 0 0 0-43-23 43 43 0 0 0-6 0c-32 5-52 45-46 90 3 20 10 38 21 51zm163 23a43 43 0 0 0 6 0c16 0 31-8 43-23 11-13 18-31 21-51 6-45-14-85-46-90a43 43 0 0 0-6 0c-16 0-31 8-43 23-11 13-18 31-21 51-6 45 14 85 46 90zm-201 97c12-5 21-15 26-28 9-20 8-46-3-71-14-35-42-58-70-58a46 46 0 0 0-17 3c-12 5-21 15-26 28-9 20-8 46 3 71 14 35 42 58 70 58a46 46 0 0 0 17-3z"/>
</svg>
